mtllib material.mtl
o Default
v 3.6875 0 0
v 0 6 0
v 3.6875 6 0
v 0 0 0
v 0 6 0.3125
v 0 0 0.3125
v 3.6875 0 0.3125
v 3.6875 6 0.3125
vt 0.5078124813735485 0.24218750116415322
vt 0.96875 0.9921875
vt 0.5078124813735485 0.9921875
vt 0.96875 0.24218750116415322
vt 0.4687499899882823 0.24218750116415322
vt 0.4687499899882823 0.9921875
vt 0.0078125 0.1640625
vt 0.4687499899882823 0.2031250005820766
vt 0.0078125 0.2031250005820766
vt 0.4687499899882823 0.1640625
vt 0.0078125 0.24218750116415322
vt 0.0078125 0.9921875
vn 0 0 -1
vn -1 0 0
vn 1 0 0
vn 0 -1 0
vn 0 1 0
vn 0 0 1
g Big10
usemtl a
f 1/1/1 2/2/1 3/3/1
f 1/1/1 4/4/1 2/2/1
f 4/5/2 5/3/2 2/6/2
f 4/5/2 6/1/2 5/3/2
f 7/5/3 3/3/3 8/6/3
f 7/5/3 1/1/3 3/3/3
f 4/7/4 7/8/4 6/9/4
f 4/7/4 1/10/4 7/8/4
f 5/9/5 3/5/5 2/11/5
f 5/9/5 8/8/5 3/5/5
f 6/11/6 8/6/6 5/12/6
f 6/11/6 7/5/6 8/6/6
