mtllib material.mtl
o Default
v 0 0 0
v 0 6 0.3125
v 0 6 0
v 0 0 0.3125
v 4 0 0.3125
v 4 6 0
v 4 6 0.3125
v 4 0 0
v 4.3125 6 0.3125
v 4.3125 0 0.3125
v 4.3125 6 0
v 4.3125 0 0
vt 0.2539062546566129 0.24218750116415322
vt 0.2734375 0.9921875
vt 0.2539062546566129 0.9921875
vt 0.2734375 0.24218750116415322
vt 0.00390625 0.1640625
vt 0.2539062546566129 0.2031250005820766
vt 0.00390625 0.2031250005820766
vt 0.2539062546566129 0.1640625
vt 0.00390625 0.24218750116415322
vt 0.00390625 0.9921875
vt 0.2929687453433871 0.24218750116415322
vt 0.54296875 0.9921875
vt 0.2929687453433871 0.9921875
vt 0.54296875 0.24218750116415322
vt 0.02343749935971573 0.24218750116415322
vt 0.02343749935971573 0.2031250005820766
vt 0.2539062546566129 0.9531250055879354
vt 0.2734375 0.9531250055879354
vn -1 0 0
vn 1 0 0
vn 0 -1 0
vn 0 1 0
vn 0 0 1
vn 0 0 -1
g Big5
usemtl 16
f 1/1/1 2/2/1 3/3/1
f 1/1/1 4/4/1 2/2/1
f 5/1/2 6/2/2 7/3/2
f 5/1/2 8/4/2 6/2/2
f 1/5/3 5/6/3 4/7/3
f 1/5/3 8/8/3 5/6/3
f 2/7/4 6/1/4 3/9/4
f 2/7/4 7/6/4 6/1/4
usemtl 18
f 4/9/5 7/3/5 2/10/5
f 4/9/5 5/1/5 7/3/5
f 8/11/6 3/12/6 6/13/6
f 8/11/6 1/14/6 3/12/6
usemtl 19
f 5/1/5 9/2/5 7/3/5
f 5/1/5 10/4/5 9/2/5
f 10/1/2 11/2/2 9/3/2
f 10/1/2 12/4/2 11/2/2
f 12/1/6 6/2/6 11/3/6
f 12/1/6 8/4/6 6/2/6
f 7/7/4 11/15/4 6/9/4
f 7/7/4 9/16/4 11/15/4
f 8/17/3 10/2/3 5/3/3
f 8/17/3 12/18/3 10/2/3
