mtllib material.mtl
o Default
v 0.25 5.75 -0.3125
v 3.75 5.75 -0.5
v 0.25 5.75 -0.5
v 3.75 5.75 -0.3125
v 3.75 5.4375 -0.3125
v 3.75 5.4375 -0.5
v 0.25 5.4375 -0.5
v 0.25 5.4375 -0.3125
v 3.5625 5.3125 -0.5
v 0.4375 5.3125 -0.5
v 3.5625 5.3125 -0.3125
v 0.4375 5.3125 -0.3125
v 3.0625 4.9375 -0.5
v 0.9375 5.3125 -0.5
v 3.0625 5.3125 -0.5
v 0.9375 4.9375 -0.5
v 3.5625 0 -0.5
v 3.0625 0 -0.5
v 0.9375 0 -0.5
v 0.4375 0 -0.5
v 0.4375 0 -0.3125
v 3.5625 0 -0.3125
v 0.25 0 -0.3125
v 0 6 -0.3125
v 0.25 6 -0.3125
v 0 0 -0.3125
v 3.75 0 -0.3125
v 3.75 6 -0.3125
v 4 0 -0.3125
v 4 6 -0.3125
v 0.25 5.4375 0.1875
v 3.75 5.75 0.1875
v 0.25 5.75 0.1875
v 3.75 5.4375 0.1875
v 3.75 5.75 0
v 0.25 5.75 0
v 3.75 5.4375 0
v 0.25 5.4375 0
v 0.4375 5.3125 0.1875
v 3.5625 5.3125 0.1875
v 3.5625 5.3125 0
v 0.4375 5.3125 0
v 3.0625 4.9375 0.1875
v 3.0625 0 0.1875
v 0.9375 0 0.1875
v 0.9375 4.9375 0.1875
v 0 6 0
v 4 6 0
v 0 0 0
v 4 0 0
v 3.5625 0 0
v 0.4375 0 0
v 3.5625 0 0.1875
v 0.4375 0 0.1875
v 3.0625 5.3125 0.1875
v 0.9375 5.3125 0.1875
v 3.75 0 0
v 4 5.75 0
v 0.25 0 0
v 0 5.75 0
vt 0.16796875733416528 0.17968749925785232
vt 0.38671876140870154 0.20312499851570465
vt 0.16796875733416528 0.20312499851570465
vt 0.38671876140870154 0.17968749925785232
vt 0.523437503259629 0.9218749850988388
vt 0.5351562476716936 0.9609374823048711
vt 0.523437503259629 0.9609374823048711
vt 0.5351562476716936 0.9218749850988388
vt 0.019531249679857865 0.9218749850988388
vt 0.2382812580326572 0.9609374823048711
vt 0.019531249679857865 0.9609374823048711
vt 0.2382812580326572 0.9218749850988388
vt 0.30078122252598405 0.9062499762512743
vt 0.5078124993015081 0.9218749850988388
vt 0.2890624952269718 0.9218749850988388
vt 0.4960937548894435 0.9062499762512743
vt 0.5624999960418791 0.8281249818392098
vt 0.5742187404539436 0.8593749995343387
vt 0.5624999960418791 0.8593749995343387
vt 0.5742187404539436 0.8281249818392098
vt 0.33203126466833055 0.8593749995343387
vt 0.46484374697320163 0.9062499762512743
vt 0.33203126466833055 0.9062499762512743
vt 0.46484374697320163 0.8593749995343387
vt 0.30078125675208867 0.24218749883584678
vt 0.33203126466833055 0.24218749883584678
vt 0.46484374697320163 0.24218749883584678
vt 0.4960937548894435 0.24218749883584678
vt 0.5507812516298145 0.24218749883584678
vt 0.5624999960418791 0.9062499762512743
vt 0.5507812516298145 0.9062499762512743
vt 0.5624999960418791 0.24218749883584678
vt 0.5078124993015081 0.24218749883584678
vt 0.523437503259629 0.9921875
vt 0.5078124993015081 0.9921875
vt 0.523437503259629 0.24218749883584678
vt 0.2890624952269718 0.24218749883584678
vt 0.30078125675208867 0.9062499762512743
vt 0.2890624952269718 0.9609374823048711
vt 0.2890624952269718 0.9921875
vt 0.5078124993015081 0.9609374823048711
vt 0.27343750838190317 0.24218749883584678
vt 0.27343750838190317 0.9921875
vt 0.5351562476716936 0.8671874790452421
vt 0.5468749920837581 0.9062499762512743
vt 0.5351562476716936 0.9062499762512743
vt 0.5468749920837581 0.8671874790452421
vt 0.03125000050931703 0.9062499762512743
vt 0.22656249650754035 0.9062499762512743
vt 0.5351562476716936 0.8750000083819032
vt 0.5468749920837581 0.8750000083819032
vt 0.5351562476716936 0.8593749995343387
vt 0.578125 0.8593749995343387
vt 0.5351562476716936 0.24218749883584678
vt 0.578125 0.24218749883584678
vt 0.00390625 0.15625
vt 0.1367187494179234 0.24218749883584678
vt 0.00390625 0.24218749883584678
vt 0.1367187494179234 0.15625
vt 0.4179687350988388 0.24218749883584678
vt 0.16796875733416528 0.24218749883584678
vt 0.4179687350988388 0.20312499851570465
vt 0.25390624487772584 0.24218749883584678
vt 0.25390624487772584 0.9921875
vt 0.27343750838190317 0.2421875050640665
vt 0.4453124834690243 0.24218749883584678
vt 0.4453124834690243 0.20312499851570465
vt 0.4179687350988388 0.2421875050640665
vt 0.16796875733416528 0.15625
vt 0.0625000020081643 0.8593749995343387
vt 0.19531250570435077 0.9062499762512743
vt 0.0625000020081643 0.9062499762512743
vt 0.19531250570435077 0.8593749995343387
vt 0.19531250570435077 0.24218749883584678
vt 0.22656249650754035 0.24218749883584678
vt 0.03125000050931703 0.24218749883584678
vt 0.0625000020081643 0.24218749883584678
vt 0.5429687667638063 0.24218749883584678
vt 0.5546875111758709 0.9062499762512743
vt 0.5429687667638063 0.9062499762512743
vt 0.5546875111758709 0.24218749883584678
vt 0.2382812580326572 0.24218749883584678
vt 0.25390624487772584 0.9609374823048711
vt 0.019531249679857865 0.24218749883584678
vt 0.00390625 0.9609374823048711
vt 0.00390625 0.9921875
vt 0.00390625 0.2421875050640665
vn 0 1 0
vn 1 0 0
vn -1 0 0
vn 0 0 -1
vn 0.5547002 -0.83205029 0
vn -0.5547002 -0.83205029 0
vn 0 0 1
vn 0 -1 0
g Door_book
usemtl 30
f 1/1/1 2/2/1 3/3/1
f 1/1/1 4/4/1 2/2/1
f 5/5/2 2/6/2 4/7/2
f 5/5/2 6/8/2 2/6/2
f 7/5/3 1/6/3 3/7/3
f 7/5/3 8/8/3 1/6/3
f 6/9/4 3/10/4 2/11/4
f 6/9/4 7/12/4 3/10/4
f 9/13/4 7/14/4 6/15/4
f 9/13/4 10/16/4 7/14/4
f 11/17/5 6/18/5 5/19/5
f 11/17/5 9/20/5 6/18/5
f 10/17/6 8/18/6 7/19/6
f 10/17/6 12/20/6 8/18/6
f 13/21/4 14/22/4 15/23/4
f 13/21/4 16/24/4 14/22/4
f 17/25/4 15/23/4 9/13/4
f 17/25/4 18/26/4 15/23/4
f 19/27/4 10/16/4 14/22/4
f 19/27/4 20/28/4 10/16/4
f 20/29/3 12/30/3 10/31/3
f 20/29/3 21/32/3 12/30/3
f 22/29/2 9/30/2 11/31/2
f 22/29/2 17/32/2 9/30/2
f 21/28/4 8/14/4 12/16/4
f 21/28/4 23/33/4 8/14/4
f 23/33/4 24/34/4 25/35/4
f 23/33/4 26/36/4 24/34/4
f 27/37/4 11/38/4 5/15/4
f 27/37/4 22/25/4 11/38/4
f 4/39/4 25/35/4 28/40/4
f 4/39/4 1/41/4 25/35/4
f 29/42/4 28/40/4 30/43/4
f 29/42/4 27/37/4 28/40/4
f 31/9/7 32/10/7 33/11/7
f 31/9/7 34/12/7 32/10/7
f 33/1/1 35/2/1 36/3/1
f 33/1/1 32/4/1 35/2/1
f 34/44/2 35/45/2 32/46/2
f 34/44/2 37/47/2 35/45/2
f 38/44/3 33/45/3 36/46/3
f 38/44/3 31/47/3 33/45/3
f 39/48/7 34/12/7 31/9/7
f 39/48/7 40/49/7 34/12/7
f 40/50/5 37/45/5 34/46/5
f 40/50/5 41/51/5 37/45/5
f 42/50/6 31/45/6 38/46/6
f 42/50/6 39/51/6 31/45/6
f 43/52/3 13/53/3 44/54/3
f 13/53/3 18/55/3 44/54/3
f 45/54/2 16/53/2 46/52/2
f 45/54/2 19/55/2 16/53/2
f 16/56/8 43/57/8 46/58/8
f 16/56/8 13/59/8 43/57/8
f 47/3/1 30/60/1 24/61/1
f 47/3/1 48/62/1 30/60/1
f 26/63/3 47/43/3 24/64/3
f 26/63/3 49/65/3 47/43/3
f 50/63/2 30/43/2 48/64/2
f 50/63/2 29/42/2 30/43/2
f 22/62/8 50/66/8 51/60/8
f 22/62/8 29/67/8 50/66/8
f 26/62/8 52/66/8 49/68/8
f 26/62/8 21/67/8 52/66/8
f 18/59/8 53/61/8 44/57/8
f 18/59/8 17/69/8 53/61/8
f 20/59/8 45/61/8 54/57/8
f 20/59/8 19/69/8 45/61/8
f 46/70/7 55/71/7 56/72/7
f 46/70/7 43/73/7 55/71/7
f 44/74/7 40/49/7 55/71/7
f 44/74/7 53/75/7 40/49/7
f 54/76/7 56/72/7 39/48/7
f 54/76/7 45/77/7 56/72/7
f 53/78/2 41/79/2 40/80/2
f 53/78/2 51/81/2 41/79/2
f 52/78/3 39/79/3 42/80/3
f 52/78/3 54/81/3 39/79/3
f 51/75/7 37/12/7 41/49/7
f 51/75/7 57/82/7 37/12/7
f 57/82/7 58/83/7 35/10/7
f 57/82/7 50/63/7 58/83/7
f 59/84/7 42/48/7 38/9/7
f 59/84/7 52/76/7 42/48/7
f 60/85/7 48/64/7 47/86/7
f 60/85/7 58/83/7 48/64/7
f 49/87/7 36/11/7 60/85/7
f 49/87/7 59/84/7 36/11/7
