mtllib material.mtl
o Default
v -2.125 4.9375 0
v 0 4.9375 0
v -2.125 0 0
v 0 0 0
v -2.125 4.9375 0.3125
v -2.125 0 0.3125
v 0 0 0.3125
v 0 4.9375 0.3125
vt 0.015625 0.9921875
vt 0.5468750046566129 0.9921875
vt 0.015625 0.3750000020954758
vt 0.5468750046566129 0.3750000020954758
vt 0.625 0.9921875
vt 0.625 0.3750000020954758
vt 0.015625 0.3359375010477379
vt 0.5468750046566129 0.3359375010477379
vt 0.015625 0.296875
vt 0.5468750046566129 0.296875
vn 0 0 -1
vn -1 0 0
vn 1 0 0
vn 0 -1 0
vn 0 1 0
vn 0 0 1
g Door
usemtl 32
f 1/1/1 2/2/1 3/3/1
f 2/2/1 4/4/1 3/3/1
f 3/4/2 5/5/2 1/2/2
f 3/4/2 6/6/2 5/5/2
f 7/4/3 2/5/3 8/2/3
f 7/4/3 4/6/3 2/5/3
f 3/7/4 7/4/4 6/3/4
f 3/7/4 4/8/4 7/4/4
f 5/9/5 2/8/5 1/7/5
f 5/9/5 8/10/5 2/8/5
f 6/3/6 8/2/6 5/1/6
f 6/3/6 7/4/6 8/2/6
