mtllib material.mtl
o Default
v 0 -0.75 0
v -6.875 0 0
v 0 0 0
v -6.875 -0.75 0
v -6.875 -3.75 0
v -7.625 0 0
v -7.625 -3.75 0
v 1.0625 -3.75 0
v 1.0625 0 0
v 0 -3.75 0
v 1.0625 -6 0
v -7.625 -6 0
v -7.625 -0.75 0.3125
v 0.75 0 0.3125
v -7.625 0 0.3125
v 0.75 -0.75 0.3125
v -7.625 -6 0.3125
v 0.75 -6 0.3125
v 0 -3.75 0.3125
v 0.75 -3.4375 0.3125
v 0 -3.4375 0.3125
v 0.75 -3.75 0.3125
v 0.75 -2.75 0.3125
v 0 -2.75 0.3125
v 0.75 -2.0625 0.3125
v 0 -2.0625 0.3125
v 0.75 -1.375 0.3125
v 0 -1.375 0.3125
v 0 -0.75 0.3125
v -6.875 -0.75 0.3125
v -6.875 -3.75 0.3125
v -6.875 -0.75 0.1875
v -6.875 -3.75 0.1875
v -6.875 -0.75 0.125
v -6.875 -3.75 0.125
v 0 -3.75 0.1875
v 0 -0.75 0.1875
v 0 -0.75 0.125
v 0 -3.75 0.125
v -7.625 -2.75 0.3125
v -6.875 -2.0625 0.3125
v -7.625 -2.0625 0.3125
v -6.875 -2.75 0.3125
v -7.625 -3.4375 0.3125
v -6.875 -3.4375 0.3125
v -7.625 -3.75 0.3125
v -6.875 -1.375 0.3125
v -7.625 -1.375 0.3125
vt 0.05078125005820766 0.8984375232830644
vt 0.48046874115243554 0.9921875
vt 0.05078125005820766 0.9921875
vt 0.48046874115243554 0.8984375232830644
vt 0.48046874115243554 0.5234374930150807
vt 0.5273437493015081 0.9921875
vt 0.5273437493015081 0.5234374930150807
vt 0.00390625 0.5234374930150807
vt 0.00390625 0.9921875
vt 0.05078125005820766 0.5234374930150807
vt 0.00390625 0.24218750116415322
vt 0.5273437493015081 0.24218750116415322
vt 0.00390625 0.8984375232830644
vt 0.5273437493015081 0.8984375232830644
vt 0.5039062625728548 0.24218750116415322
vt 0.5234375 0.9921875
vt 0.5039062625728548 0.9921875
vt 0.5234375 0.24218750116415322
vt 0.00390625 0.2031250005820766
vt 0.5039062625728548 0.2031250005820766
vt 0.00390625 0.1640625
vt 0.5039062625728548 0.1640625
vt 0.45703125558793545 0.5234374930150807
vt 0.5039062625728548 0.5625000121071935
vt 0.45703125558793545 0.5625000121071935
vt 0.5039062625728548 0.5234374930150807
vt 0.5039062625728548 0.6484375195577741
vt 0.45703125558793545 0.6484375195577741
vt 0.5039062625728548 0.7343749776482582
vt 0.45703125558793545 0.7343749776482582
vt 0.5039062625728548 0.8203124850988388
vt 0.45703125558793545 0.8203124850988388
vt 0.5039062625728548 0.8984375232830644
vt 0.45703125558793545 0.8984375232830644
vt 0.05078125174622983 0.1640625
vt 0.45703125931322575 0.2031250005820766
vt 0.05078125174622983 0.2031250005820766
vt 0.45703125931322575 0.1640625
vt 0.503906256519258 0.5156249990686774
vt 0.5117187378928065 0.8906250046566129
vt 0.503906256519258 0.8906250046566129
vt 0.5117187378928065 0.5156249990686774
vt 0.5156250149011612 0.8906250046566129
vt 0.5156250149011612 0.5156249990686774
vt 0.00390625 0.6484375195577741
vt 0.05078124924330041 0.7343749776482582
vt 0.00390625 0.7343749776482582
vt 0.05078124924330041 0.6484375195577741
vt 0.00390625 0.5625000121071935
vt 0.05078124924330041 0.5625000121071935
vt 0.05078124924330041 0.5234374930150807
vt 0.05078124924330041 0.8203124850988388
vt 0.00390625 0.8203124850988388
vt 0.05078124924330041 0.8984375232830644
vn 0 0 -1
vn 0 0 1
vn -1 0 0
vn 0.70710678 0 0.70710678
vn 0 1 0
vn 0 -1 0
vn 1 0 0
g Object 4078
usemtl 35
f 1/1/1 2/2/1 3/3/1
f 1/1/1 4/4/1 2/2/1
f 5/5/1 6/6/1 2/2/1
f 5/5/1 7/7/1 6/6/1
f 8/8/1 3/3/1 9/9/1
f 8/8/1 10/10/1 3/3/1
f 11/11/1 7/7/1 8/8/1
f 11/11/1 12/12/1 7/7/1
f 13/13/2 14/6/2 15/9/2
f 13/13/2 16/14/2 14/6/2
usemtl b
f 12/15/3 15/16/3 6/17/3
f 12/15/3 17/18/3 15/16/3
f 18/15/4 9/16/4 14/17/4
f 18/15/4 11/18/4 9/16/4
f 15/19/5 9/15/5 6/11/5
f 15/19/5 14/20/5 9/15/5
f 12/21/6 18/20/6 17/19/6
f 12/21/6 11/22/6 18/20/6
f 19/23/2 20/24/2 21/25/2
f 19/23/2 22/26/2 20/24/2
f 21/25/2 23/27/2 24/28/2
f 21/25/2 20/24/2 23/27/2
f 24/28/2 25/29/2 26/30/2
f 24/28/2 23/27/2 25/29/2
f 26/30/2 27/31/2 28/32/2
f 26/30/2 25/29/2 27/31/2
f 28/32/2 16/33/2 29/34/2
f 28/32/2 27/31/2 16/33/2
usemtl 34
f 4/35/6 29/36/6 30/37/6
f 4/35/6 1/38/6 29/36/6
f 31/35/5 10/36/5 5/37/5
f 31/35/5 19/38/5 10/36/5
f 31/39/7 32/40/7 30/41/7
f 31/39/7 33/42/7 32/40/7
f 33/42/7 34/43/7 32/40/7
f 33/42/7 35/44/7 34/43/7
f 35/39/7 4/40/7 34/41/7
f 35/39/7 5/42/7 4/40/7
f 36/39/3 29/40/3 37/41/3
f 36/39/3 19/42/3 29/40/3
f 10/39/3 38/40/3 1/41/3
f 10/39/3 39/42/3 38/40/3
f 39/42/3 37/43/3 38/40/3
f 39/42/3 36/44/3 37/43/3
usemtl b
f 40/45/2 41/46/2 42/47/2
f 40/45/2 43/48/2 41/46/2
f 44/49/2 43/48/2 40/45/2
f 44/49/2 45/50/2 43/48/2
f 46/8/2 45/50/2 44/49/2
f 46/8/2 31/51/2 45/50/2
usemtl 35
f 17/11/2 22/7/2 46/8/2
f 17/11/2 18/12/2 22/7/2
usemtl b
f 42/47/2 47/52/2 48/53/2
f 42/47/2 41/46/2 47/52/2
f 48/53/2 30/54/2 13/13/2
f 48/53/2 47/52/2 30/54/2
