mtllib material.mtl
o Default
v 5.1875 4.6875 -0.125
v 5.125 5 -0.125
v 5.1875 5 -0.125
v 5.125 4.6875 -0.125
v 5.1875 3.875 -0.125
v 3.1875 4.5 -0.125
v 5.1875 4.5 -0.125
v 3.1875 3.875 -0.125
v 5 4.6875 -0.125
v 4.875 5.125 -0.125
v 5 5.125 -0.125
v 4.875 4.6875 -0.125
v 4.6875 5.1875 -0.125
v 4.875 5.1875 -0.125
v 4.6875 4.6875 -0.125
v 4.4375 5.25 -0.125
v 4.6875 5.25 -0.125
v 4.4375 4.6875 -0.125
v 4.125 5.3125 -0.125
v 4.4375 5.3125 -0.125
v 4.125 4.6875 -0.125
v 3.1875 5.375 -0.125
v 4.125 5.375 -0.125
v 3.1875 4.6875 -0.125
v 0.875 4.6875 -0.125
v 0.8125 5 -0.125
v 0.875 5 -0.125
v 0.8125 4.6875 -0.125
v 1 4.6875 -0.125
v 0.875 5.0625 -0.125
v 1 5.0625 -0.125
v 1.125 4.6875 -0.125
v 1 5.125 -0.125
v 1.125 5.125 -0.125
v 1.3125 4.6875 -0.125
v 1.125 5.1875 -0.125
v 1.3125 5.1875 -0.125
v 1.5625 4.6875 -0.125
v 1.3125 5.25 -0.125
v 1.5625 5.25 -0.125
v 1.875 4.6875 -0.125
v 1.5625 5.3125 -0.125
v 1.875 5.3125 -0.125
v 2.8125 4.6875 -0.125
v 1.875 5.375 -0.125
v 2.8125 5.375 -0.125
v 2.8125 3.875 -0.125
v 0.8125 4.5 -0.125
v 2.8125 4.5 -0.125
v 0.8125 3.875 -0.125
v 2.8125 3.0625 -0.125
v 0.8125 3.6875 -0.125
v 2.8125 3.6875 -0.125
v 0.8125 3.0625 -0.125
v 5.1875 3.0625 -0.125
v 3.1875 3.6875 -0.125
v 5.1875 3.6875 -0.125
v 3.1875 3.0625 -0.125
v 5.1875 2.25 -0.125
v 3.1875 2.875 -0.125
v 5.1875 2.875 -0.125
v 3.1875 2.25 -0.125
v 2.8125 2.25 -0.125
v 0.8125 2.875 -0.125
v 2.8125 2.875 -0.125
v 0.8125 2.25 -0.125
v 6 3.875 -0.3125
v 5.1875 4.5 -0.3125
v 6 4.5 -0.3125
v 5.1875 3.875 -0.3125
v 6 3.0625 -0.3125
v 5.1875 3.6875 -0.3125
v 6 3.6875 -0.3125
v 5.1875 3.0625 -0.3125
v 6 2.25 -0.3125
v 5.1875 2.875 -0.3125
v 6 2.875 -0.3125
v 5.1875 2.25 -0.3125
v 3.1875 3.0625 -0.3125
v 3.1875 2.875 -0.3125
v 3.1875 3.875 -0.3125
v 3.1875 3.6875 -0.3125
v 6 4.6875 -0.3125
v 5.1875 6 -0.3125
v 6 6 -0.3125
v 5.1875 4.6875 -0.3125
v 3.1875 4.6875 -0.3125
v 3.1875 4.5 -0.3125
v 5.1875 5 -0.3125
v 5.125 6 -0.3125
v 5.125 5 -0.3125
v 5.125 5.0625 -0.3125
v 5 6 -0.3125
v 5 5.0625 -0.3125
v 5 5.125 -0.3125
v 4.875 6 -0.3125
v 4.875 5.125 -0.3125
v 4.875 5.1875 -0.3125
v 4.6875 6 -0.3125
v 4.6875 5.1875 -0.3125
v 4.6875 5.25 -0.3125
v 4.4375 6 -0.3125
v 4.4375 5.25 -0.3125
v 4.4375 5.3125 -0.3125
v 4.125 6 -0.3125
v 4.125 5.3125 -0.3125
v 4.125 5.375 -0.3125
v 3.1875 6 -0.3125
v 3.1875 5.375 -0.3125
v 2.8125 5.375 -0.3125
v 1.875 6 -0.3125
v 2.8125 6 -0.3125
v 1.875 5.375 -0.3125
v 1.875 5.3125 -0.3125
v 1.5625 6 -0.3125
v 1.5625 5.3125 -0.3125
v 1.5625 5.25 -0.3125
v 1.3125 6 -0.3125
v 1.3125 5.25 -0.3125
v 1.3125 5.1875 -0.3125
v 1.125 6 -0.3125
v 1.125 5.1875 -0.3125
v 1.125 5.125 -0.3125
v 1 6 -0.3125
v 1 5.125 -0.3125
v 1 5.0625 -0.3125
v 0.875 6 -0.3125
v 0.875 5.0625 -0.3125
v 0.875 5 -0.3125
v 0.8125 6 -0.3125
v 0.8125 5 -0.3125
v 0.8125 4.6875 -0.3125
v 0 6 -0.3125
v 0 4.6875 -0.3125
v 2.8125 4.5 -0.3125
v 2.8125 4.6875 -0.3125
v 0 4.5 -0.3125
v 0.8125 3.875 -0.3125
v 0.8125 4.5 -0.3125
v 0 3.875 -0.3125
v 2.875 3.6875 -0.3125
v 2.875 3.875 -0.3125
v 0 3.6875 -0.3125
v 0.8125 3.0625 -0.3125
v 0.8125 3.6875 -0.3125
v 0 3.0625 -0.3125
v 2.875 2.875 -0.3125
v 2.875 3.0625 -0.3125
v 0 2.875 -0.3125
v 0.8125 2.25 -0.3125
v 0.8125 2.875 -0.3125
v 0 2.25 -0.3125
v 3.1875 0 -0.3125
v 2.8125 0 -0.3125
v 2.8125 2.25 -0.3125
v 0 0 -0.3125
v 6 0 -0.3125
v 3.1875 2.25 -0.3125
v 2.8125 4.5 -0.25
v 0.8125 4.5 -0.25
v 2.8125 3.6875 -0.25
v 0.8125 3.6875 -0.25
v 2.8125 3.6875 -0.3125
v 2.8125 2.875 -0.25
v 0.8125 2.875 -0.25
v 2.8125 2.875 -0.3125
v 5.1875 2.875 -0.25
v 3.1875 2.875 -0.25
v 5.1875 3.6875 -0.25
v 3.1875 3.6875 -0.25
v 5.1875 4.5 -0.25
v 3.1875 4.5 -0.25
v 5 5.0625 -0.125
v 5.125 5.0625 -0.125
v 3.1875 4.6875 -0.25
v 3.1875 5.375 -0.25
v 2.8125 5.375 -0.25
v 2.8125 4.6875 -0.25
v 5.1875 4.6875 -0.25
v 0.8125 4.6875 -0.25
v 3.1875 3.875 -0.25
v 5.1875 3.875 -0.25
v 3.1875 3.0625 -0.25
v 5.1875 3.0625 -0.25
v 3.1875 2.25 -0.25
v 5.1875 2.25 -0.25
v 0.8125 2.25 -0.25
v 2.8125 2.25 -0.25
v 0.8125 3.0625 -0.25
v 2.8125 3.0625 -0.3125
v 2.8125 3.0625 -0.25
v 0.8125 3.875 -0.25
v 2.8125 3.875 -0.3125
v 2.8125 3.875 -0.25
v 4.125 5.375 0
v 4.125 5.3125 0
v 4.4375 5.3125 0
v 4.4375 5.25 0
v 4.6875 5.25 0
v 4.6875 5.1875 0
v 4.875 5.1875 0
v 4.875 5.125 0
v 5 5.125 0
v 5 5.0625 0
v 5.125 5.0625 0
v 5.125 5 0
v 1.875 5.3125 0
v 1.875 5.375 0
v 1.5625 5.25 0
v 1.5625 5.3125 0
v 1.3125 5.1875 0
v 1.3125 5.25 0
v 1.125 5.125 0
v 1.125 5.1875 0
v 1 5.0625 0
v 1 5.125 0
v 0.875 5 0
v 0.875 5.0625 0
v 0.8125 5 0
v 5.1875 5 0
v 2.8125 5.375 0
v 3.1875 5.375 0
v 6 0 0
v 0 0 0
v 0 6 0
v 6 6 0
v 2.8125 4.6875 0
v 3.1875 4.6875 0
v 0 5 0
v 0.8125 6 0
v 0.875 6 0
v 1 6 0
v 1.125 6 0
v 1.3125 6 0
v 1.5625 6 0
v 1.875 6 0
v 2.8125 6 0
v 5.1875 6 0
v 6 5 0
v 5.125 6 0
v 5 6 0
v 4.875 6 0
v 4.6875 6 0
v 4.4375 6 0
v 4.125 6 0
v 3.1875 6 0
v 5.1875 4.5 0
v 3.1875 4.5 0
v 2.8125 4.5 0
v 0.8125 4.5 0
v 2.8125 3.6875 0
v 0.8125 3.6875 0
v 5.1875 3.6875 0
v 3.1875 3.6875 0
v 5.1875 2.875 0
v 3.1875 2.875 0
v 2.8125 2.875 0
v 0.8125 2.875 0
v 5.1875 4.6875 0
v 3.1875 3.875 0
v 5.1875 3.875 0
v 3.1875 3.0625 0
v 5.1875 3.0625 0
v 0.8125 4.6875 0
v 0.8125 3.875 0
v 2.8125 3.875 0
v 0.8125 3.0625 0
v 2.8125 3.0625 0
v 0.8125 2.25 0
v 2.8125 2.25 0
v 3.1875 2.25 0
v 5.1875 2.25 0
v 0 4.6875 0
v 6 4.6875 0
v 6 4.5 0
v 6 3.875 0
v 6 3.6875 0
v 6 3.0625 0
v 0 3.0625 0
v 0 3.6875 0
v 0 3.875 0
v 0 4.5 0
v 0 2.875 0
v 6 2.875 0
v 0 2.25 0
v 6 2.25 0
v 5.1875 0 0
v 3.1875 0 0
v 2.8125 0 0
v 0.8125 0 0
vt 0.05468750250292942 0.8281250037252903
vt 0.0585937513387762 0.8671874981373549
vt 0.05468750250292942 0.8671874981373549
vt 0.0585937513387762 0.8281250037252903
vt 0.05468750250292942 0.7265625083819032
vt 0.1796874946448952 0.8046874972060323
vt 0.05468750250292942 0.8046874972060323
vt 0.1796874946448952 0.7265625083819032
vt 0.06640624901046976 0.8281250037252903
vt 0.07421875256113708 0.8828124860301614
vt 0.06640624901046976 0.8828124860301614
vt 0.07421875256113708 0.8281250037252903
vt 0.08593749906867743 0.8906250046566129
vt 0.07421875256113708 0.8906250046566129
vt 0.08593749906867743 0.8281250037252903
vt 0.1015625002910383 0.8984375232830644
vt 0.08593749906867743 0.8984375232830644
vt 0.1015625002910383 0.8281250037252903
vt 0.12109375034924597 0.9062499925494194
vt 0.1015625002910383 0.9062499925494194
vt 0.12109375034924597 0.8281250037252903
vt 0.1796874946448952 0.9140625111758709
vt 0.12109375034924597 0.9140625111758709
vt 0.1796874946448952 0.8281250037252903
vt 0.32421874860301614 0.8281250037252903
vt 0.3281249974388629 0.8671874981373549
vt 0.32421874860301614 0.8671874981373549
vt 0.3281249974388629 0.8281250037252903
vt 0.3164062509313226 0.8281250037252903
vt 0.32421874860301614 0.8750000167638063
vt 0.3164062509313226 0.8750000167638063
vt 0.308593753259629 0.8281250037252903
vt 0.3164062509313226 0.8828124860301614
vt 0.308593753259629 0.8828124860301614
vt 0.29687500675208867 0.8281250037252903
vt 0.308593753259629 0.8906250046566129
vt 0.29687500675208867 0.8906250046566129
vt 0.28125001140870154 0.8281250037252903
vt 0.29687500675208867 0.8984375232830644
vt 0.28125001140870154 0.8984375232830644
vt 0.2617187437135726 0.8281250037252903
vt 0.28125001140870154 0.9062499925494194
vt 0.2617187437135726 0.9062499925494194
vt 0.2031250111758709 0.8281250037252903
vt 0.2617187437135726 0.9140625111758709
vt 0.2031250111758709 0.9140625111758709
vt 0.2031250111758709 0.7265625083819032
vt 0.3281249974388629 0.8046874972060323
vt 0.2031250111758709 0.8046874972060323
vt 0.3281249974388629 0.7265625083819032
vt 0.2031250111758709 0.625000013038516
vt 0.3281249974388629 0.7031250018626451
vt 0.2031250111758709 0.7031250018626451
vt 0.3281249974388629 0.625000013038516
vt 0.05468750250292942 0.625000013038516
vt 0.1796874946448952 0.7031250018626451
vt 0.05468750250292942 0.7031250018626451
vt 0.1796874946448952 0.625000013038516
vt 0.05468750250292942 0.5234374930150807
vt 0.1796874946448952 0.601562506519258
vt 0.05468750250292942 0.601562506519258
vt 0.1796874946448952 0.5234374930150807
vt 0.2031250111758709 0.5234374930150807
vt 0.3281249974388629 0.601562506519258
vt 0.2031250111758709 0.601562506519258
vt 0.3281249974388629 0.5234374930150807
vt 0.00390625 0.7265625083819032
vt 0.00390625 0.8046874972060323
vt 0.00390625 0.625000013038516
vt 0.00390625 0.7031250018626451
vt 0.00390625 0.5234374930150807
vt 0.00390625 0.601562506519258
vt 0.00390625 0.8281250037252903
vt 0.05468750250292942 0.9921875
vt 0.00390625 0.9921875
vt 0.0585937513387762 0.9921875
vt 0.0585937513387762 0.8750000167638063
vt 0.06640624901046976 0.9921875
vt 0.06640624901046976 0.8750000167638063
vt 0.07421875256113708 0.9921875
vt 0.08593749906867743 0.9921875
vt 0.1015625002910383 0.9921875
vt 0.12109375034924597 0.9921875
vt 0.1796874946448952 0.9921875
vt 0.2617187437135726 0.9921875
vt 0.2031250111758709 0.9921875
vt 0.28125001140870154 0.9921875
vt 0.29687500675208867 0.9921875
vt 0.308593753259629 0.9921875
vt 0.3164062509313226 0.9921875
vt 0.32421874860301614 0.9921875
vt 0.3281249974388629 0.9921875
vt 0.3789062558207661 0.9921875
vt 0.3789062558207661 0.8281250037252903
vt 0.3789062558207661 0.8046874972060323
vt 0.3789062558207661 0.7265625083819032
vt 0.1992187505820766 0.7031250018626451
vt 0.1992187505820766 0.7265625083819032
vt 0.3789062558207661 0.7031250018626451
vt 0.3789062558207661 0.625000013038516
vt 0.1992187505820766 0.601562506519258
vt 0.1992187505820766 0.625000013038516
vt 0.3789062558207661 0.601562506519258
vt 0.3789062558207661 0.5234374930150807
vt 0.1796874946448952 0.24218750116415322
vt 0.2031250111758709 0.24218750116415322
vt 0.3789062558207661 0.24218750116415322
vt 0.00390625 0.24218750116415322
vt 0.3945312511641532 0.2343750010477379
vt 0.5195312374271452 0.24218750116415322
vt 0.3945312511641532 0.24218750116415322
vt 0.5195312374271452 0.2343750010477379
vt 0.3789062558207661 0.2343750010477379
vt 0.39062500232830644 0.24218750116415322
vt 0.39062500232830644 0.2343750010477379
vt 0.3789062558207661 0.21875000081490725
vt 0.3828125046566129 0.24218750116415322
vt 0.3828125046566129 0.21875000081490725
vt 0.38671875349245965 0.24218750116415322
vt 0.38671875349245965 0.21875000081490725
vt 0.39062500232830644 0.21875000081490725
vt 0.3945312511641532 0.21875000081490725
vt 0.3984375 0.24218750116415322
vt 0.3984375 0.21875000081490725
vt 0.41015627002343535 0.21875000081490725
vt 0.4140624953433871 0.24218750116415322
vt 0.41015627002343535 0.24218750116415322
vt 0.4140624953433871 0.21875000081490725
vt 0.4218749930150807 0.24218750116415322
vt 0.4218749930150807 0.21875000081490725
vt 0.4257812653668225 0.24218750116415322
vt 0.4257812653668225 0.21875000081490725
vt 0.4374999883584678 0.21093750069849193
vt 0.49609374441206455 0.2343750010477379
vt 0.4374999883584678 0.2343750010477379
vt 0.49609374441206455 0.21093750069849193
vt 0.3789062558207661 0.2031250005820766
vt 0.39062500232830644 0.2031250005820766
vt 0.4374999883584678 0.21875000081490725
vt 0.3945312511641532 0.21093750069849193
vt 0.3789062558207661 0.1640625
vt 0.3828125046566129 0.1640625
vt 0.3945312511641532 0.22656250093132257
vt 0.4374999883584678 0.22656250093132257
vt 0.38671875349245965 0.1640625
vt 0.5195312374271452 0.22656250093132257
vt 0.38671875349245965 0.1953125004656613
vt 0.3945312511641532 0.2031250005820766
vt 0.38671875349245965 0.2031250005820766
vt 0.3945312511641532 0.1953125004656613
vt 0.38671875349245965 0.18750000034924597
vt 0.39062500232830644 0.18750000034924597
vt 0.3945312511641532 0.18750000034924597
vt 0.38671875349245965 0.17187500011641532
vt 0.3984375 0.18750000034924597
vt 0.3984375 0.17187500011641532
vt 0.3945312511641532 0.17187500011641532
vt 0.41015627002343535 0.18750000034924597
vt 0.41015627002343535 0.17187500011641532
vt 0.4023437723517418 0.18750000034924597
vt 0.4218749930150807 0.2031250005820766
vt 0.4023437723517418 0.2031250005820766
vt 0.4218749930150807 0.18750000034924597
vt 0.49609374441206455 0.22656250093132257
vt 0.00390625 0.1640625
vt 0.00390625 0.2031250005820766
vt 0.4179687676951289 0.9921875
vt 0.3984375 0.9921875
vt 0.4179687676951289 0.24218750116415322
vt 0.00390625 0.8671874981373549
vt 0.3789062558207661 0.8671874981373549
vt 0.3281249974388629 0.24218750116415322
vt 0.05468750250292942 0.24218750116415322
vn 0 0 -1
vn 0 0 1
vn 0 -1 0
vn 1 0 0
vn -1 0 0
vn 0 1 0
g Window_office
usemtl Office_Window
f 1/1/1 2/2/1 3/3/1
f 1/1/1 4/4/1 2/2/1
f 5/5/1 6/6/1 7/7/1
f 5/5/1 8/8/1 6/6/1
f 9/9/1 10/10/1 11/11/1
f 9/9/1 12/12/1 10/10/1
f 12/12/1 13/13/1 14/14/1
f 12/12/1 15/15/1 13/13/1
f 15/15/1 16/16/1 17/17/1
f 15/15/1 18/18/1 16/16/1
f 18/18/1 19/19/1 20/20/1
f 18/18/1 21/21/1 19/19/1
f 21/21/1 22/22/1 23/23/1
f 21/21/1 24/24/1 22/22/1
f 25/25/1 26/26/1 27/27/1
f 25/25/1 28/28/1 26/26/1
f 29/29/1 30/30/1 31/31/1
f 29/29/1 25/25/1 30/30/1
f 32/32/1 33/33/1 34/34/1
f 32/32/1 29/29/1 33/33/1
f 35/35/1 36/36/1 37/37/1
f 35/35/1 32/32/1 36/36/1
f 38/38/1 39/39/1 40/40/1
f 38/38/1 35/35/1 39/39/1
f 41/41/1 42/42/1 43/43/1
f 41/41/1 38/38/1 42/42/1
f 44/44/1 45/45/1 46/46/1
f 44/44/1 41/41/1 45/45/1
f 47/47/1 48/48/1 49/49/1
f 47/47/1 50/50/1 48/48/1
f 51/51/1 52/52/1 53/53/1
f 51/51/1 54/54/1 52/52/1
f 8/47/2 7/48/2 6/49/2
f 8/47/2 5/50/2 7/48/2
f 55/55/1 56/56/1 57/57/1
f 55/55/1 58/58/1 56/56/1
f 59/59/1 60/60/1 61/61/1
f 59/59/1 62/62/1 60/60/1
f 63/63/1 64/64/1 65/65/1
f 63/63/1 66/66/1 64/64/1
f 67/67/1 68/7/1 69/68/1
f 67/67/1 70/5/1 68/7/1
f 71/69/1 72/57/1 73/70/1
f 71/69/1 74/55/1 72/57/1
f 75/71/1 76/61/1 77/72/1
f 75/71/1 78/59/1 76/61/1
f 77/72/1 79/58/1 71/69/1
f 77/72/1 80/60/1 79/58/1
f 73/70/1 81/8/1 67/67/1
f 73/70/1 82/56/1 81/8/1
f 83/73/1 84/74/1 85/75/1
f 83/73/1 86/1/1 84/74/1
f 69/68/1 87/24/1 83/73/1
f 69/68/1 88/6/1 87/24/1
f 89/3/1 90/76/1 84/74/1
f 89/3/1 91/2/1 90/76/1
f 92/77/1 93/78/1 90/76/1
f 92/77/1 94/79/1 93/78/1
f 95/11/1 96/80/1 93/78/1
f 95/11/1 97/10/1 96/80/1
f 98/14/1 99/81/1 96/80/1
f 98/14/1 100/13/1 99/81/1
f 101/17/1 102/82/1 99/81/1
f 101/17/1 103/16/1 102/82/1
f 104/20/1 105/83/1 102/82/1
f 104/20/1 106/19/1 105/83/1
f 107/23/1 108/84/1 105/83/1
f 107/23/1 109/22/1 108/84/1
f 110/46/1 111/85/1 112/86/1
f 110/46/1 113/45/1 111/85/1
f 114/43/1 115/87/1 111/85/1
f 114/43/1 116/42/1 115/87/1
f 117/40/1 118/88/1 115/87/1
f 117/40/1 119/39/1 118/88/1
f 120/37/1 121/89/1 118/88/1
f 120/37/1 122/36/1 121/89/1
f 123/34/1 124/90/1 121/89/1
f 123/34/1 125/33/1 124/90/1
f 126/31/1 127/91/1 124/90/1
f 126/31/1 128/30/1 127/91/1
f 129/27/1 130/92/1 127/91/1
f 129/27/1 131/26/1 130/92/1
f 132/28/1 133/93/1 130/92/1
f 132/28/1 134/94/1 133/93/1
f 135/49/1 134/94/1 136/44/1
f 135/49/1 137/95/1 134/94/1
f 138/50/1 137/95/1 139/48/1
f 138/50/1 140/96/1 137/95/1
f 141/97/1 140/96/1 142/98/1
f 141/97/1 143/99/1 140/96/1
f 144/54/1 143/99/1 145/52/1
f 144/54/1 146/100/1 143/99/1
f 147/101/1 146/100/1 148/102/1
f 147/101/1 149/103/1 146/100/1
f 150/66/1 149/103/1 151/64/1
f 150/66/1 152/104/1 149/103/1
f 153/105/1 112/86/1 108/84/1
f 153/105/1 154/106/1 112/86/1
f 154/106/1 152/104/1 155/63/1
f 154/106/1 156/107/1 152/104/1
f 157/108/1 158/62/1 75/71/1
f 157/108/1 153/105/1 158/62/1
f 139/109/3 159/110/3 160/111/3
f 139/109/3 135/112/3 159/110/3
f 145/109/3 161/110/3 162/111/3
f 145/109/3 163/112/3 161/110/3
f 151/109/3 164/110/3 165/111/3
f 151/109/3 166/112/3 164/110/3
f 80/109/3 167/110/3 168/111/3
f 80/109/3 76/112/3 167/110/3
f 82/109/3 169/110/3 170/111/3
f 82/109/3 72/112/3 169/110/3
f 88/109/3 171/110/3 172/111/3
f 88/109/3 68/112/3 171/110/3
f 27/113/4 128/114/4 30/107/4
f 27/113/4 129/115/4 128/114/4
f 31/113/4 125/114/4 33/107/4
f 31/113/4 126/115/4 125/114/4
f 34/113/4 122/114/4 36/107/4
f 34/113/4 123/115/4 122/114/4
f 37/113/4 119/114/4 39/107/4
f 37/113/4 120/115/4 119/114/4
f 40/113/4 116/114/4 42/107/4
f 40/113/4 117/115/4 116/114/4
f 43/113/4 113/114/4 45/107/4
f 43/113/4 114/115/4 113/114/4
f 106/113/5 23/114/5 107/107/5
f 106/113/5 19/115/5 23/114/5
f 103/113/5 20/114/5 104/107/5
f 103/113/5 16/115/5 20/114/5
f 100/113/5 17/114/5 101/107/5
f 100/113/5 13/115/5 17/114/5
f 97/113/5 14/114/5 98/107/5
f 97/113/5 10/115/5 14/114/5
f 94/113/5 11/114/5 95/107/5
f 94/113/5 173/115/5 11/114/5
f 91/113/5 174/114/5 92/107/5
f 91/113/5 2/115/5 174/114/5
f 91/116/3 3/117/3 2/107/3
f 91/116/3 89/118/3 3/117/3
f 94/116/3 174/119/3 173/107/3
f 94/116/3 92/120/3 174/119/3
f 97/116/3 11/119/3 10/107/3
f 97/116/3 95/120/3 11/119/3
f 100/116/3 14/114/3 13/107/3
f 100/116/3 98/121/3 14/114/3
f 103/116/3 17/111/3 16/107/3
f 103/116/3 101/122/3 17/111/3
f 106/116/3 20/123/3 19/107/3
f 106/116/3 104/124/3 20/123/3
f 131/125/3 27/126/3 26/127/3
f 131/125/3 129/128/3 27/126/3
f 128/128/3 31/129/3 30/126/3
f 128/128/3 126/130/3 31/129/3
f 125/128/3 34/129/3 33/126/3
f 125/128/3 123/130/3 34/129/3
f 122/128/3 37/131/3 36/126/3
f 122/128/3 120/132/3 37/131/3
f 119/124/3 40/126/3 39/123/3
f 119/124/3 117/128/3 40/126/3
f 116/116/3 43/123/3 42/107/3
f 116/116/3 114/124/3 43/123/3
f 113/133/3 46/134/3 45/135/3
f 113/133/3 110/136/3 46/134/3
f 109/133/3 23/134/3 22/135/3
f 109/133/3 107/136/3 23/134/3
f 28/137/4 131/114/4 26/107/4
f 28/137/4 132/138/4 131/114/4
f 86/137/5 3/114/5 89/107/5
f 86/137/5 1/138/5 3/114/5
f 175/122/4 109/133/4 176/139/4
f 175/122/4 87/140/4 109/133/4
f 136/122/5 177/133/5 110/139/5
f 136/122/5 178/140/5 177/133/5
f 175/110/6 86/109/6 87/112/6
f 175/110/6 179/111/6 86/109/6
f 180/110/6 136/109/6 132/112/6
f 180/110/6 178/111/6 136/109/6
f 181/110/6 70/109/6 81/112/6
f 181/110/6 182/111/6 70/109/6
f 183/110/6 74/109/6 79/112/6
f 183/110/6 184/111/6 74/109/6
f 185/110/6 78/109/6 158/112/6
f 185/110/6 186/111/6 78/109/6
f 187/110/6 155/109/6 150/112/6
f 187/110/6 188/111/6 155/109/6
f 189/110/6 190/109/6 144/112/6
f 189/110/6 191/111/6 190/109/6
f 192/110/6 193/109/6 138/112/6
f 192/110/6 194/111/6 193/109/6
f 185/117/4 80/141/4 168/142/4
f 185/117/4 158/107/4 80/141/4
f 183/117/4 82/141/4 170/142/4
f 183/117/4 79/107/4 82/141/4
f 181/117/4 88/141/4 172/142/4
f 181/117/4 81/107/4 88/141/4
f 187/117/4 151/141/4 165/142/4
f 187/117/4 150/107/4 151/141/4
f 189/117/4 145/141/4 162/142/4
f 189/117/4 144/107/4 145/141/4
f 192/117/4 139/141/4 160/142/4
f 192/117/4 138/107/4 139/141/4
f 70/117/5 171/141/5 68/142/5
f 70/117/5 182/107/5 171/141/5
f 193/117/5 159/141/5 135/142/5
f 193/117/5 194/107/5 159/141/5
f 74/117/5 169/141/5 72/142/5
f 74/117/5 184/107/5 169/141/5
f 190/117/5 161/141/5 163/142/5
f 190/117/5 191/107/5 161/141/5
f 78/117/5 167/141/5 76/142/5
f 78/117/5 186/107/5 167/141/5
f 155/117/5 164/141/5 166/142/5
f 155/117/5 188/107/5 164/141/5
f 24/143/4 176/133/4 22/144/4
f 24/143/4 175/140/4 176/133/4
f 178/143/5 46/133/5 177/144/5
f 178/143/5 44/140/5 46/133/5
f 188/141/5 65/119/5 164/107/5
f 188/141/5 63/145/5 65/119/5
f 191/141/5 53/119/5 161/107/5
f 191/141/5 51/145/5 53/119/5
f 194/141/5 49/119/5 159/107/5
f 194/141/5 47/145/5 49/119/5
f 66/141/4 165/119/4 64/107/4
f 66/141/4 187/145/4 165/119/4
f 54/141/4 162/119/4 52/107/4
f 54/141/4 189/145/4 162/119/4
f 50/141/4 160/119/4 48/107/4
f 50/141/4 192/145/4 160/119/4
f 8/141/4 172/119/4 6/107/4
f 8/141/4 181/145/4 172/119/4
f 58/141/4 170/119/4 56/107/4
f 58/141/4 183/145/4 170/119/4
f 62/141/4 168/119/4 60/107/4
f 62/141/4 185/145/4 168/119/4
f 186/141/5 61/119/5 167/107/5
f 186/141/5 59/145/5 61/119/5
f 184/141/5 57/119/5 169/107/5
f 184/141/5 55/145/5 57/119/5
f 182/141/5 7/119/5 171/107/5
f 182/141/5 5/145/5 7/119/5
f 160/143/3 49/110/3 48/111/3
f 160/143/3 159/146/3 49/110/3
f 172/143/3 7/110/3 6/111/3
f 172/143/3 171/146/3 7/110/3
f 170/143/3 57/110/3 56/111/3
f 170/143/3 169/146/3 57/110/3
f 162/143/3 53/110/3 52/111/3
f 162/143/3 161/146/3 53/110/3
f 165/143/3 65/110/3 64/111/3
f 165/143/3 164/146/3 65/110/3
f 168/143/3 61/110/3 60/111/3
f 168/143/3 167/146/3 61/110/3
f 28/143/6 178/110/6 180/111/6
f 28/143/6 44/146/6 178/110/6
f 50/143/6 194/110/6 192/111/6
f 50/143/6 47/146/6 194/110/6
f 54/143/6 191/110/6 189/111/6
f 54/143/6 51/146/6 191/110/6
f 66/143/6 188/110/6 187/111/6
f 66/143/6 63/146/6 188/110/6
f 24/143/6 179/110/6 175/111/6
f 24/143/6 1/146/6 179/110/6
f 8/143/6 182/110/6 181/111/6
f 8/143/6 5/146/6 182/110/6
f 58/143/6 184/110/6 183/111/6
f 58/143/6 55/146/6 184/110/6
f 62/143/6 186/110/6 185/111/6
f 62/143/6 59/146/6 186/110/6
f 58/51/2 57/52/2 56/53/2
f 58/51/2 55/54/2 57/52/2
f 25/4/2 31/79/2 30/77/2
f 25/4/2 29/9/2 31/79/2
f 29/9/2 34/10/2 33/11/2
f 29/9/2 32/12/2 34/10/2
f 32/12/2 37/13/2 36/14/2
f 32/12/2 35/15/2 37/13/2
f 35/15/2 40/16/2 39/17/2
f 35/15/2 38/18/2 40/16/2
f 38/18/2 43/19/2 42/20/2
f 38/18/2 41/21/2 43/19/2
f 41/21/2 46/22/2 45/23/2
f 41/21/2 44/24/2 46/22/2
f 4/25/2 3/26/2 2/27/2
f 4/25/2 1/28/2 3/26/2
f 9/29/2 174/30/2 173/31/2
f 9/29/2 4/25/2 174/30/2
f 12/32/2 11/33/2 10/34/2
f 12/32/2 9/29/2 11/33/2
f 15/35/2 14/36/2 13/37/2
f 15/35/2 12/32/2 14/36/2
f 18/38/2 17/39/2 16/40/2
f 18/38/2 15/35/2 17/39/2
f 21/41/2 20/42/2 19/43/2
f 21/41/2 18/38/2 20/42/2
f 24/44/2 23/45/2 22/46/2
f 24/44/2 21/41/2 23/45/2
f 19/147/5 195/148/5 23/149/5
f 19/147/5 196/150/5 195/148/5
f 16/147/5 197/148/5 20/149/5
f 16/147/5 198/150/5 197/148/5
f 13/147/5 199/148/5 17/149/5
f 13/147/5 200/150/5 199/148/5
f 10/147/5 201/148/5 14/149/5
f 10/147/5 202/150/5 201/148/5
f 173/147/5 203/148/5 11/149/5
f 173/147/5 204/150/5 203/148/5
f 2/147/5 205/148/5 174/149/5
f 2/147/5 206/150/5 205/148/5
f 207/147/4 45/148/4 208/149/4
f 207/147/4 43/150/4 45/148/4
f 209/147/4 42/148/4 210/149/4
f 209/147/4 40/150/4 42/148/4
f 211/147/4 39/148/4 212/149/4
f 211/147/4 37/150/4 39/148/4
f 213/147/4 36/148/4 214/149/4
f 213/147/4 34/150/4 36/148/4
f 215/147/4 33/148/4 216/149/4
f 215/147/4 31/150/4 33/148/4
f 217/147/4 30/148/4 218/149/4
f 217/147/4 27/150/4 30/148/4
f 26/151/3 217/138/3 219/149/3
f 26/151/3 27/152/3 217/138/3
f 2/151/3 220/138/3 206/149/3
f 2/151/3 3/152/3 220/138/3
f 173/151/3 205/148/3 204/149/3
f 173/151/3 174/153/3 205/148/3
f 10/151/3 203/148/3 202/149/3
f 10/151/3 11/153/3 203/148/3
f 30/151/3 215/148/3 218/149/3
f 30/151/3 31/153/3 215/148/3
f 33/151/3 213/148/3 216/149/3
f 33/151/3 34/153/3 213/148/3
f 13/154/3 201/155/3 200/151/3
f 13/154/3 14/156/3 201/155/3
f 36/154/3 211/155/3 214/151/3
f 36/154/3 37/156/3 211/155/3
f 39/157/3 209/158/3 212/153/3
f 39/157/3 40/159/3 209/158/3
f 16/157/3 199/158/3 198/153/3
f 16/157/3 17/159/3 199/158/3
f 19/160/3 197/161/3 196/162/3
f 19/160/3 20/163/3 197/161/3
f 42/160/3 207/161/3 210/162/3
f 42/160/3 43/163/3 207/161/3
f 45/133/3 221/164/3 208/144/3
f 45/133/3 46/136/3 221/164/3
f 22/133/3 195/164/3 222/144/3
f 22/133/3 23/136/3 195/164/3
f 156/165/3 223/137/3 224/166/3
f 156/165/3 157/141/3 223/137/3
f 156/123/5 225/167/5 133/168/5
f 156/123/5 224/169/5 225/167/5
f 223/107/4 85/168/4 226/93/4
f 223/107/4 157/123/4 85/168/4
f 44/133/5 221/143/5 46/140/5
f 44/133/5 227/144/5 221/143/5
f 228/133/4 22/143/4 222/140/4
f 228/133/4 24/144/4 22/143/4
f 229/170/2 230/74/2 225/75/2
f 229/170/2 219/3/2 230/74/2
f 219/3/2 231/76/2 230/74/2
f 219/3/2 217/2/2 231/76/2
f 218/77/2 232/78/2 231/76/2
f 218/77/2 215/79/2 232/78/2
f 216/11/2 233/80/2 232/78/2
f 216/11/2 213/10/2 233/80/2
f 214/14/2 234/81/2 233/80/2
f 214/14/2 211/13/2 234/81/2
f 212/17/2 235/82/2 234/81/2
f 212/17/2 209/16/2 235/82/2
f 210/20/2 236/83/2 235/82/2
f 210/20/2 207/19/2 236/83/2
f 208/23/2 237/84/2 236/83/2
f 208/23/2 221/22/2 237/84/2
f 220/26/2 226/93/2 238/92/2
f 220/26/2 239/171/2 226/93/2
f 206/27/2 238/92/2 240/91/2
f 206/27/2 220/26/2 238/92/2
f 204/31/2 240/91/2 241/90/2
f 204/31/2 205/30/2 240/91/2
f 202/34/2 241/90/2 242/89/2
f 202/34/2 203/33/2 241/90/2
f 200/37/2 242/89/2 243/88/2
f 200/37/2 201/36/2 242/89/2
f 198/40/2 243/88/2 244/87/2
f 198/40/2 199/39/2 243/88/2
f 196/43/2 244/87/2 245/85/2
f 196/43/2 197/42/2 244/87/2
f 222/46/2 245/85/2 246/86/2
f 222/46/2 195/45/2 245/85/2
f 221/22/2 246/86/2 237/84/2
f 221/22/2 222/46/2 246/86/2
f 4/4/1 173/79/1 174/77/1
f 4/4/1 9/9/1 173/79/1
f 50/5/2 49/6/2 48/7/2
f 50/5/2 47/8/2 49/6/2
f 54/55/2 53/56/2 52/57/2
f 54/55/2 51/58/2 53/56/2
f 66/59/2 65/60/2 64/61/2
f 66/59/2 63/62/2 65/60/2
f 28/1/2 27/2/2 26/3/2
f 28/1/2 25/4/2 27/2/2
f 62/63/2 61/64/2 60/65/2
f 62/63/2 59/66/2 61/64/2
f 6/143/3 247/110/3 248/111/3
f 6/143/3 7/146/3 247/110/3
f 48/143/3 249/110/3 250/111/3
f 48/143/3 49/146/3 249/110/3
f 52/143/3 251/110/3 252/111/3
f 52/143/3 53/146/3 251/110/3
f 56/143/3 253/110/3 254/111/3
f 56/143/3 57/146/3 253/110/3
f 60/143/3 255/110/3 256/111/3
f 60/143/3 61/146/3 255/110/3
f 64/143/3 257/110/3 258/111/3
f 64/143/3 65/146/3 257/110/3
f 228/143/6 1/110/6 24/111/6
f 228/143/6 259/146/6 1/110/6
f 260/143/6 5/110/6 8/111/6
f 260/143/6 261/146/6 5/110/6
f 262/143/6 55/110/6 58/111/6
f 262/143/6 263/146/6 55/110/6
f 264/143/6 44/110/6 28/111/6
f 264/143/6 227/146/6 44/110/6
f 265/143/6 47/110/6 50/111/6
f 265/143/6 266/146/6 47/110/6
f 267/143/6 51/110/6 54/111/6
f 267/143/6 268/146/6 51/110/6
f 269/143/6 63/110/6 66/111/6
f 269/143/6 270/146/6 63/110/6
f 271/143/6 59/110/6 62/111/6
f 271/143/6 272/146/6 59/110/6
f 264/149/4 26/111/4 219/119/4
f 264/149/4 28/148/4 26/111/4
f 1/149/5 220/111/5 3/119/5
f 1/149/5 259/148/5 220/111/5
f 47/141/5 249/119/5 49/107/5
f 47/141/5 266/145/5 249/119/5
f 5/141/5 247/119/5 7/107/5
f 5/141/5 261/145/5 247/119/5
f 265/141/4 48/119/4 250/107/4
f 265/141/4 50/145/4 48/119/4
f 260/141/4 6/119/4 248/107/4
f 260/141/4 8/145/4 6/119/4
f 267/141/4 52/119/4 252/107/4
f 267/141/4 54/145/4 52/119/4
f 262/141/4 56/119/4 254/107/4
f 262/141/4 58/145/4 56/119/4
f 55/141/5 253/119/5 57/107/5
f 55/141/5 263/145/5 253/119/5
f 51/141/5 251/119/5 53/107/5
f 51/141/5 268/145/5 251/119/5
f 63/141/5 257/119/5 65/107/5
f 63/141/5 270/145/5 257/119/5
f 269/141/4 64/119/4 258/107/4
f 269/141/4 66/145/4 64/119/4
f 271/141/4 60/119/4 256/107/4
f 271/141/4 62/145/4 60/119/4
f 59/141/5 255/119/5 61/107/5
f 59/141/5 272/145/5 255/119/5
f 273/73/2 219/3/2 229/170/2
f 273/73/2 264/1/2 219/3/2
f 259/28/2 239/171/2 220/26/2
f 259/28/2 274/94/2 239/171/2
f 247/48/2 274/94/2 259/28/2
f 247/48/2 275/95/2 274/94/2
f 261/50/2 275/95/2 247/48/2
f 261/50/2 276/96/2 275/95/2
f 253/52/2 276/96/2 261/50/2
f 253/52/2 277/99/2 276/96/2
f 263/54/2 277/99/2 253/52/2
f 263/54/2 278/100/2 277/99/2
f 279/69/2 252/57/2 280/70/2
f 279/69/2 267/55/2 252/57/2
f 280/70/2 265/5/2 281/67/2
f 280/70/2 252/57/2 265/5/2
f 281/67/2 250/7/2 282/68/2
f 281/67/2 265/5/2 250/7/2
f 282/68/2 264/1/2 273/73/2
f 282/68/2 250/7/2 264/1/2
f 250/7/2 227/24/2 264/1/2
f 250/7/2 249/6/2 227/24/2
f 248/49/2 259/28/2 228/44/2
f 248/49/2 247/48/2 259/28/2
f 254/53/2 261/50/2 260/47/2
f 254/53/2 253/52/2 261/50/2
f 252/57/2 266/8/2 265/5/2
f 252/57/2 251/56/2 266/8/2
f 283/72/2 267/55/2 279/69/2
f 283/72/2 258/61/2 267/55/2
f 258/61/2 268/58/2 267/55/2
f 258/61/2 257/60/2 268/58/2
f 256/65/2 263/54/2 262/51/2
f 256/65/2 255/64/2 263/54/2
f 255/64/2 278/100/2 263/54/2
f 255/64/2 284/103/2 278/100/2
f 285/71/2 258/61/2 283/72/2
f 285/71/2 269/59/2 258/61/2
f 272/66/2 284/103/2 255/64/2
f 272/66/2 286/104/2 284/103/2
f 227/24/2 222/46/2 221/22/2
f 227/24/2 228/44/2 222/46/2
f 249/6/2 228/44/2 227/24/2
f 249/6/2 248/49/2 228/44/2
f 266/8/2 248/49/2 249/6/2
f 266/8/2 260/47/2 248/49/2
f 251/56/2 260/47/2 266/8/2
f 251/56/2 254/53/2 260/47/2
f 268/58/2 254/53/2 251/56/2
f 268/58/2 262/51/2 254/53/2
f 257/60/2 262/51/2 268/58/2
f 257/60/2 256/65/2 262/51/2
f 270/62/2 256/65/2 257/60/2
f 270/62/2 271/63/2 256/65/2
f 225/166/6 85/107/6 133/108/6
f 225/166/6 226/137/6 85/107/6
f 287/172/2 286/104/2 272/66/2
f 287/172/2 223/107/2 286/104/2
f 288/106/2 272/66/2 271/63/2
f 288/106/2 287/172/2 272/66/2
f 289/105/2 271/63/2 270/62/2
f 289/105/2 288/106/2 271/63/2
f 290/173/2 270/62/2 269/59/2
f 290/173/2 289/105/2 270/62/2
f 224/108/2 269/59/2 285/71/2
f 224/108/2 290/173/2 269/59/2
