mtllib teat.mtl
o Default
v 0 0 -4
v 2 0 0
v 0 0 0
v 2 0 -4
v 0 5 0
v 2 5 -4
v 0 5 -4
v 2 5 0
vt 0 0.6800000071525574
vt 0.06400000303983688 0.8080000281333923
vt 0 0.8080000281333923
vt 0.06400000303983688 0.6800000071525574
vt 0.09600000083446503 0.8399999737739563
vt 0.2240000069141388 1
vt 0.09600000083446503 1
vt 0.2240000069141388 0.8399999737739563
vt 0 0.8399999737739563
vt 0.06400000303983688 1
vt 0 1
vt 0.06400000303983688 0.8399999737739563
vn 0 -1 0
vn 0 1 0
vn -1 0 0
vn 0 0 -1
vn 1 0 0
vn 0 0 1
g Scene
g test
usemtl 2
f 1/1/1 2/2/1 3/3/1
f 1/1/1 4/4/1 2/2/1
f 5/1/2 6/2/2 7/3/2
f 5/1/2 8/4/2 6/2/2
f 1/5/3 5/6/3 7/7/3
f 1/5/3 3/8/3 5/6/3
f 4/9/4 7/10/4 6/11/4
f 4/9/4 1/12/4 7/10/4
f 2/5/5 6/6/5 8/7/5
f 2/5/5 4/8/5 6/6/5
f 3/9/6 8/10/6 5/11/6
f 3/9/6 2/12/6 8/10/6
