mtllib material.mtl
o Default
v 0 0 0
v 2 6 0
v 0 6 0
v 2 0 0
v 2 6 -0.3125
v 0 6 -0.3125
v 0 0 -0.3125
v 2 0 -0.3125
vt 0.0078125 0.24218750116415322
vt 0.25781250605359674 0.9921875
vt 0.0078125 0.9921875
vt 0.25781250605359674 0.24218750116415322
vt 0.0078125 0.2031250005820766
vt 0.25781250605359674 0.2031250005820766
vt 0.0078125 0.1640625
vt 0.25781250605359674 0.1640625
vt 0.296875 0.9921875
vt 0.296875 0.24218750116415322
vt 0.3359375111758709 0.9921875
vt 0.3359375111758709 0.24218750116415322
vt 0.5859375 0.9921875
vt 0.5859375 0.24218750116415322
vn 0 0 1
vn 0 1 0
vn 0 -1 0
vn 1 0 0
vn -1 0 0
vn 0 0 -1
g Small_W1
usemtl Office_Wall1
f 1/1/1 2/2/1 3/3/1
f 1/1/1 4/4/1 2/2/1
f 3/5/2 5/4/2 6/1/2
f 3/5/2 2/6/2 5/4/2
f 7/7/3 4/6/3 1/5/3
f 7/7/3 8/8/3 4/6/3
f 4/4/4 5/9/4 2/2/4
f 4/4/4 8/10/4 5/9/4
f 7/10/5 3/11/5 6/9/5
f 7/10/5 1/12/5 3/11/5
f 8/12/6 6/13/6 5/11/6
f 8/12/6 7/14/6 6/13/6
