mtllib material.mtl
o Default
v 2 0 -0.3125
v -0.3125 6 -0.3125
v 2 6 -0.3125
v -0.3125 0 -0.3125
v 0 6 0
v 0 0 0
v 2 0 0
v 2 6 0
vt 0.3359375111758709 0.24218750116415322
vt 0.5859375 0.9921875
vt 0.3359375111758709 0.9921875
vt 0.5859375 0.24218750116415322
vt 0.296875 0.24218750116415322
vt 0.296875 0.9921875
vt 0.25781250605359674 0.24218750116415322
vt 0.25781250605359674 0.9921875
vt 0.0078125 0.1640625
vt 0.25781250605359674 0.2031250005820766
vt 0.0078125 0.2031250005820766
vt 0.25781250605359674 0.1640625
vt 0.0078125 0.24218750116415322
vt 0.0078125 0.9921875
vn 0 0 -1
vn -0.70710678 0 0.70710678
vn 1 0 0
vn 0 -1 0
vn 0 1 0
vn 0 0 1
g Small_W2
usemtl Office_Wall1
f 1/1/1 2/2/1 3/3/1
f 1/1/1 4/4/1 2/2/1
f 4/5/2 5/3/2 2/6/2
f 4/5/2 6/1/2 5/3/2
f 7/7/3 3/6/3 8/8/3
f 7/7/3 1/5/3 3/6/3
f 4/9/4 7/10/4 6/11/4
f 4/9/4 1/12/4 7/10/4
f 5/11/5 3/7/5 2/13/5
f 5/11/5 8/10/5 3/7/5
f 6/13/6 8/8/6 5/14/6
f 6/13/6 7/7/6 8/8/6
