mtllib material.mtl
o Default
v -3.875 -1.5 1.5625
v 1.875 0.375 1.5625
v -3.875 0.375 1.5625
v 1.875 -1.5 1.5625
v 1.875 0.375 0
v 1.875 -1.5 0
v -3.875 -1.5 0
v -3.875 0.375 0
v 2 0.375 1.5625
v 2 0.375 0
v -4 0.375 0
v -4 0.375 1.5625
v 2 0.375 1.6875
v -4 0.375 1.6875
v -4 0.375 -0.125
v 2 0.375 -0.125
v 2 0.5 1.6875
v -4 0.5 1.6875
v -4 0.5 -0.125
v 2 0.5 -0.125
v 2 0.5 -0.1875
v -4 0.5 -0.1875
v 0 0.375 0
v 0 -1.5 0
v -2 -1.5 0
v -2 0.375 0
v 0 -1.5 1.5625
v -2 -1.5 1.5625
v 0 0.375 1.5625
v -2 0.375 1.5625
v -2 -1.5 1.375
v 0 -1.5 1.375
v 0 0 0
v -2 0 0
v -2 0 1.375
v 0 0 1.375
vt 0.00510204081632653 0.7737226355684935
vt 0.4744897861869968 0.9927007299270073
vt 0.00510204081632653 0.9927007299270073
vt 0.4744897861869968 0.7737226355684935
vt 0.00510204081632653 0.2627737252381596
vt 0.1326530563588045 0.48175181959667346
vt 0.00510204081632653 0.48175181959667346
vt 0.1326530563588045 0.2627737252381596
vt 0.1326530563588045 0.49635035974265884
vt 0.00510204081632653 0.5109489068497706
vt 0.00510204081632653 0.49635035974265884
vt 0.1326530563588045 0.5109489068497706
vt 0.49489795918367346 0.7737226355684935
vt 0.00510204081632653 0.7591240884613817
vt 0.49489795918367346 0.7591240884613817
vt 0.00510204081632653 0.7445255413542698
vt 0.49489795918367346 0.7445255413542698
vt 0.15306122935548122 0.5255474539568824
vt 0.15306122935548122 0.5109489068497706
vt 0.00510204081632653 0.5255474539568824
vt 0.9744898153811085 0.9927007299270073
vt 0.48469386781964985 0.7737226355684935
vt 0.9744898153811085 0.7737226355684935
vt 0.48469386781964985 0.9927007299270073
vt 0.2857142954456563 0.48175181959667346
vt 0.2857142954456563 0.2627737252381596
vt 0.2857142954456563 0.2992700649438983
vt 0.4387755199354522 0.48175181959667346
vt 0.4387755199354522 0.2992700649438983
vt 0.15306122935548122 0.5036496332962147
vt 0.31632654034361546 0.5255474539568824
vt 0.31632654034361546 0.5036496332962147
vt 0.31632654034361546 0.5693430391541362
vt 0.15306122935548122 0.5693430391541362
vt 0.4489796015681053 0.30656933849745427
vt 0.6122448979591836 0.48175181959667346
vt 0.4489796015681053 0.48175181959667346
vt 0.6122448979591836 0.30656933849745427
vt 0.6122448979591836 0.321167885604566
vt 0.7755102235443737 0.48175181959667346
vt 0.7755102235443737 0.321167885604566
vn 0 0 1
vn 1 0 0
vn -1 0 0
vn 0 -1 0
vn 0 0 -1
vn 0 1 0
g table
usemtl table
f 1/1/1 2/2/1 3/3/1
f 1/1/1 4/4/1 2/2/1
f 4/5/2 5/6/2 2/7/2
f 4/5/2 6/8/2 5/6/2
f 7/5/3 3/6/3 8/7/3
f 7/5/3 1/8/3 3/6/3
f 5/9/4 9/10/4 2/11/4
f 5/9/4 10/12/4 9/10/4
f 11/9/4 3/10/4 12/11/4
f 11/9/4 8/12/4 3/10/4
f 12/13/4 13/14/4 14/15/4
f 12/13/4 9/1/4 13/14/4
f 15/13/4 10/14/4 11/15/4
f 15/13/4 16/1/4 10/14/4
f 14/15/1 17/16/1 18/17/1
f 14/15/1 13/14/1 17/16/1
f 16/15/5 19/16/5 20/17/5
f 16/15/5 15/14/5 19/16/5
f 13/18/2 20/10/2 17/19/2
f 13/18/2 16/20/2 20/10/2
f 15/18/3 18/10/3 19/19/3
f 15/18/3 14/20/3 18/10/3
f 18/21/6 21/22/6 22/23/6
f 18/21/6 17/24/6 21/22/6
f 6/8/5 23/25/5 5/6/5
f 6/8/5 24/26/5 23/25/5
f 25/8/5 8/25/5 26/6/5
f 25/8/5 7/26/5 8/25/5
f 24/27/4 4/28/4 27/25/4
f 24/27/4 6/29/4 4/28/4
f 7/27/4 28/28/4 1/25/4
f 7/27/4 25/29/4 28/28/4
f 24/5/3 29/6/3 23/7/3
f 24/5/3 27/8/3 29/6/3
f 28/5/2 26/6/2 30/7/2
f 28/5/2 25/8/2 26/6/2
f 31/30/4 27/31/4 28/18/4
f 31/30/4 32/32/4 27/31/4
f 33/18/5 26/33/5 23/34/5
f 33/18/5 34/31/5 26/33/5
f 32/35/5 35/36/5 36/37/5
f 32/35/5 31/38/5 35/36/5
f 34/39/4 36/40/4 35/36/4
f 34/39/4 33/41/4 36/40/4
